<svg width="25" height="24" viewBox="0 0 25 24" fill="none" xmlns="http://www.w3.org/2000/svg">
<g id="barcode-solid 1" clip-path="url(#clip0_2_42)">
<path id="Vector" d="M1.625 1.5C1.00156 1.5 0.5 2.00156 0.5 2.625V21.375C0.5 21.9984 1.00156 22.5 1.625 22.5H2.375C2.99844 22.5 3.5 21.9984 3.5 21.375V2.625C3.5 2.00156 2.99844 1.5 2.375 1.5H1.625ZM5.75 1.5C5.3375 1.5 5 1.8375 5 2.25V21.75C5 22.1625 5.3375 22.5 5.75 22.5C6.1625 22.5 6.5 22.1625 6.5 21.75V2.25C6.5 1.8375 6.1625 1.5 5.75 1.5ZM9.125 1.5C8.50156 1.5 8 2.00156 8 2.625V21.375C8 21.9984 8.50156 22.5 9.125 22.5H9.875C10.4984 22.5 11 21.9984 11 21.375V2.625C11 2.00156 10.4984 1.5 9.875 1.5H9.125ZM13.625 1.5C13.0016 1.5 12.5 2.00156 12.5 2.625V21.375C12.5 21.9984 13.0016 22.5 13.625 22.5H14.375C14.9984 22.5 15.5 21.9984 15.5 21.375V2.625C15.5 2.00156 14.9984 1.5 14.375 1.5H13.625ZM21.5 2.625V21.375C21.5 21.9984 22.0016 22.5 22.625 22.5H23.375C23.9984 22.5 24.5 21.9984 24.5 21.375V2.625C24.5 2.00156 23.9984 1.5 23.375 1.5H22.625C22.0016 1.5 21.5 2.00156 21.5 2.625ZM18.5 2.25V21.75C18.5 22.1625 18.8375 22.5 19.25 22.5C19.6625 22.5 20 22.1625 20 21.75V2.25C20 1.8375 19.6625 1.5 19.25 1.5C18.8375 1.5 18.5 1.8375 18.5 2.25Z" fill="white"/>
</g>
<defs>
<clipPath id="clip0_2_42">
<rect width="24" height="24" fill="white" transform="translate(0.5)"/>
</clipPath>
</defs>
</svg>
