<svg width="21" height="24" viewBox="0 0 21 24" fill="none" xmlns="http://www.w3.org/2000/svg">
<g id="code-branch-solid 1" clip-path="url(#clip0_2_149)">
<path id="Vector" d="M3.75 4.875C4.04837 4.875 4.33452 4.75647 4.5455 4.5455C4.75647 4.33452 4.875 4.04837 4.875 3.75C4.875 3.45163 4.75647 3.16548 4.5455 2.9545C4.33452 2.74353 4.04837 2.625 3.75 2.625C3.45163 2.625 3.16548 2.74353 2.9545 2.9545C2.74353 3.16548 2.625 3.45163 2.625 3.75C2.625 4.04837 2.74353 4.33452 2.9545 4.5455C3.16548 4.75647 3.45163 4.875 3.75 4.875ZM7.5 3.75C7.5 5.2875 6.57656 6.60938 5.25 7.18594V11.3016C6.13125 10.7906 7.15781 10.5 8.25 10.5H12.75C14.4047 10.5 15.75 9.15469 15.75 7.5V7.18594C14.4234 6.60938 13.5 5.2875 13.5 3.75C13.5 1.67812 15.1781 0 17.25 0C19.3219 0 21 1.67812 21 3.75C21 5.2875 20.0766 6.60938 18.75 7.18594V7.5C18.75 10.8141 16.0641 13.5 12.75 13.5H8.25C6.59531 13.5 5.25 14.8453 5.25 16.5V16.8141C6.57656 17.3906 7.5 18.7125 7.5 20.25C7.5 22.3219 5.82188 24 3.75 24C1.67812 24 0 22.3219 0 20.25C0 18.7125 0.923438 17.3906 2.25 16.8141V16.5V7.18594C0.923438 6.60938 0 5.2875 0 3.75C0 1.67812 1.67812 0 3.75 0C5.82188 0 7.5 1.67812 7.5 3.75ZM18.375 3.75C18.375 3.45163 18.2565 3.16548 18.0455 2.9545C17.8345 2.74353 17.5484 2.625 17.25 2.625C16.9516 2.625 16.6655 2.74353 16.4545 2.9545C16.2435 3.16548 16.125 3.45163 16.125 3.75C16.125 4.04837 16.2435 4.33452 16.4545 4.5455C16.6655 4.75647 16.9516 4.875 17.25 4.875C17.5484 4.875 17.8345 4.75647 18.0455 4.5455C18.2565 4.33452 18.375 4.04837 18.375 3.75ZM3.75 21.375C4.04837 21.375 4.33452 21.2565 4.5455 21.0455C4.75647 20.8345 4.875 20.5484 4.875 20.25C4.875 19.9516 4.75647 19.6655 4.5455 19.4545C4.33452 19.2435 4.04837 19.125 3.75 19.125C3.45163 19.125 3.16548 19.2435 2.9545 19.4545C2.74353 19.6655 2.625 19.9516 2.625 20.25C2.625 20.5484 2.74353 20.8345 2.9545 21.0455C3.16548 21.2565 3.45163 21.375 3.75 21.375Z" fill="white"/>
</g>
<defs>
<clipPath id="clip0_2_149">
<rect width="21" height="24" fill="white"/>
</clipPath>
</defs>
</svg>
