<svg width="27" height="24" viewBox="0 0 27 24" fill="none" xmlns="http://www.w3.org/2000/svg">
<g id="money-bill-solid 1">
<path id="Vector" d="M3 3C1.34531 3 0 4.34531 0 6V18C0 19.6547 1.34531 21 3 21H24C25.6547 21 27 19.6547 27 18V6C27 4.34531 25.6547 3 24 3H3ZM6 18H3V15C4.65469 15 6 16.3453 6 18ZM3 9V6H6C6 7.65469 4.65469 9 3 9ZM21 18C21 16.3453 22.3453 15 24 15V18H21ZM24 9C22.3453 9 21 7.65469 21 6H24V9ZM13.5 7.5C14.6935 7.5 15.8381 7.97411 16.682 8.81802C17.5259 9.66193 18 10.8065 18 12C18 13.1935 17.5259 14.3381 16.682 15.182C15.8381 16.0259 14.6935 16.5 13.5 16.5C12.3065 16.5 11.1619 16.0259 10.318 15.182C9.47411 14.3381 9 13.1935 9 12C9 10.8065 9.47411 9.66193 10.318 8.81802C11.1619 7.97411 12.3065 7.5 13.5 7.5Z" fill="white"/>
</g>
</svg>
