<svg width="27" height="24" viewBox="0 0 27 24" fill="none" xmlns="http://www.w3.org/2000/svg">
<g id="layer-group-solid (1) 1">
<path id="Vector" d="M12.3984 0.243738C13.0969 -0.0796997 13.9031 -0.0796997 14.6016 0.243738L24.8484 4.97811C25.2469 5.16093 25.5 5.55936 25.5 5.99999C25.5 6.44061 25.2469 6.83905 24.8484 7.02186L14.6016 11.7562C13.9031 12.0797 13.0969 12.0797 12.3984 11.7562L2.15156 7.02186C1.75313 6.83436 1.5 6.43593 1.5 5.99999C1.5 5.56405 1.75313 5.16093 2.15156 4.97811L12.3984 0.243738ZM22.3547 9.82499L24.8484 10.9781C25.2469 11.1609 25.5 11.5594 25.5 12C25.5 12.4406 25.2469 12.8391 24.8484 13.0219L14.6016 17.7562C13.9031 18.0797 13.0969 18.0797 12.3984 17.7562L2.15156 13.0219C1.75313 12.8344 1.5 12.4359 1.5 12C1.5 11.5641 1.75313 11.1609 2.15156 10.9781L4.64531 9.82499L11.7703 13.1156C12.8672 13.6219 14.1328 13.6219 15.2297 13.1156L22.3547 9.82499ZM15.2297 19.1156L22.3547 15.825L24.8484 16.9781C25.2469 17.1609 25.5 17.5594 25.5 18C25.5 18.4406 25.2469 18.8391 24.8484 19.0219L14.6016 23.7562C13.9031 24.0797 13.0969 24.0797 12.3984 23.7562L2.15156 19.0219C1.75313 18.8344 1.5 18.4359 1.5 18C1.5 17.5641 1.75313 17.1609 2.15156 16.9781L4.64531 15.825L11.7703 19.1156C12.8672 19.6219 14.1328 19.6219 15.2297 19.1156Z" fill="white"/>
</g>
</svg>
