<svg width="28" height="24" viewBox="0 0 28 24" fill="none" xmlns="http://www.w3.org/2000/svg">
<g id="star-solid (5) 1" clip-path="url(#clip0_2_34)">
<path id="Vector" d="M15.3547 0.84375C15.1062 0.328125 14.5813 0 14.0047 0C13.4281 0 12.9078 0.328125 12.6547 0.84375L9.64062 7.04531L2.90938 8.03906C2.34688 8.12344 1.87813 8.51719 1.70469 9.05625C1.53125 9.59531 1.67187 10.1906 2.075 10.5891L6.95938 15.4219L5.80625 22.2516C5.7125 22.8141 5.94687 23.3859 6.41094 23.7188C6.875 24.0516 7.48906 24.0937 7.99531 23.8266L14.0094 20.6156L20.0234 23.8266C20.5297 24.0937 21.1437 24.0562 21.6078 23.7188C22.0719 23.3813 22.3063 22.8141 22.2125 22.2516L21.0547 15.4219L25.9391 10.5891C26.3422 10.1906 26.4875 9.59531 26.3094 9.05625C26.1312 8.51719 25.6672 8.12344 25.1047 8.03906L18.3688 7.04531L15.3547 0.84375Z" fill="white"/>
</g>
<defs>
<clipPath id="clip0_2_34">
<rect width="27" height="24" fill="white" transform="translate(0.5)"/>
</clipPath>
</defs>
</svg>
