<svg width="30" height="24" viewBox="0 0 30 24" fill="none" xmlns="http://www.w3.org/2000/svg">
<g id="graduation-cap-solid 1" clip-path="url(#clip0_2_111)">
<path id="Vector" d="M15 1.5C14.6203 1.5 14.2453 1.56562 13.8891 1.69219L0.740626 6.44062C0.295313 6.60469 5.34928e-07 7.02656 5.34928e-07 7.5C5.34928e-07 7.97344 0.295313 8.39531 0.740626 8.55938L3.45469 9.53906C2.68594 10.7484 2.25 12.1781 2.25 13.6828V15C2.25 16.3312 1.74375 17.7047 1.20469 18.7875C0.900001 19.3969 0.553126 19.9969 0.150001 20.55C5.36499e-07 20.7516 -0.042187 21.0141 0.042188 21.2531C0.126563 21.4922 0.323438 21.6703 0.567188 21.7313L3.56719 22.4813C3.76406 22.5328 3.975 22.4953 4.14844 22.3875C4.32188 22.2797 4.44375 22.1016 4.48125 21.9C4.88438 19.8938 4.68281 18.0938 4.38281 16.8047C4.23281 16.1391 4.03125 15.4594 3.75 14.8359V13.6828C3.75 12.2672 4.22813 10.9312 5.05781 9.8625C5.6625 9.13594 6.44531 8.55 7.36406 8.18906L14.7234 5.29688C15.1078 5.14687 15.5438 5.33438 15.6938 5.71875C15.8438 6.10312 15.6563 6.53906 15.2719 6.68906L7.9125 9.58125C7.33125 9.81094 6.82031 10.1625 6.40313 10.5938L13.8844 13.2938C14.2406 13.4203 14.6156 13.4859 14.9953 13.4859C15.375 13.4859 15.75 13.4203 16.1063 13.2938L29.2594 8.55938C29.7047 8.4 30 7.97344 30 7.5C30 7.02656 29.7047 6.60469 29.2594 6.44062L16.1109 1.69219C15.7547 1.56562 15.3797 1.5 15 1.5ZM6 19.125C6 20.7797 10.0313 22.5 15 22.5C19.9688 22.5 24 20.7797 24 19.125L23.2828 12.3094L16.6172 14.7188C16.0969 14.9062 15.5484 15 15 15C14.4516 15 13.8984 14.9062 13.3828 14.7188L6.71719 12.3094L6 19.125Z" fill="white"/>
</g>
<defs>
<clipPath id="clip0_2_111">
<rect width="30" height="24" fill="white"/>
</clipPath>
</defs>
</svg>
