<svg width="32" height="36" viewBox="0 0 32 36" fill="none" xmlns="http://www.w3.org/2000/svg">
<g clip-path="url(#clip0_83_11)">
<path d="M9.75625 1.24453L9.25 2.25H2.5C1.25547 2.25 0.25 3.25547 0.25 4.5C0.25 5.74453 1.25547 6.75 2.5 6.75H29.5C30.7445 6.75 31.75 5.74453 31.75 4.5C31.75 3.25547 30.7445 2.25 29.5 2.25H22.75L22.2437 1.24453C21.8641 0.478125 21.0836 0 20.2328 0H11.7672C10.9164 0 10.1359 0.478125 9.75625 1.24453ZM29.5 9H2.5L3.99063 32.8359C4.10313 34.6148 5.57969 36 7.35859 36H24.6414C26.4203 36 27.8969 34.6148 28.0094 32.8359L29.5 9Z" fill="white"/>
</g>
<defs>
<clipPath id="clip0_83_11">
<rect width="31.5" height="36" fill="white" transform="translate(0.25)"/>
</clipPath>
</defs>
</svg>
