<svg width="24" height="24" viewBox="0 0 24 24" fill="none" xmlns="http://www.w3.org/2000/svg">
<g id="building-columns-solid 1" clip-path="url(#clip0_2_134)">
<path id="Vector" d="M11.4094 0.121851L0.909369 4.62185C0.253119 4.9031 -0.112506 5.60623 0.0328064 6.29998C0.178119 6.99373 0.787494 7.49998 1.49999 7.49998V7.87498C1.49999 8.49841 2.00156 8.99998 2.62499 8.99998H21.375C21.9984 8.99998 22.5 8.49841 22.5 7.87498V7.49998C23.2125 7.49998 23.8266 6.99841 23.9672 6.29998C24.1078 5.60154 23.7422 4.89841 23.0906 4.62185L12.5906 0.121851C12.2156 -0.0375244 11.7844 -0.0375244 11.4094 0.121851ZM5.99999 10.5H2.99999V19.7015C2.97187 19.7156 2.94374 19.7344 2.91562 19.7531L0.665619 21.2531C0.117181 21.6187 -0.131256 22.3031 0.0609314 22.9359C0.253119 23.5687 0.839056 24 1.49999 24H22.5C23.1609 24 23.7422 23.5687 23.9344 22.9359C24.1266 22.3031 23.8828 21.6187 23.3297 21.2531L21.0797 19.7531C21.0516 19.7344 21.0234 19.7203 20.9953 19.7015V10.5H18V19.5H16.125V10.5H13.125V19.5H10.875V10.5H7.87499V19.5H5.99999V10.5ZM12 2.99998C12.3978 2.99998 12.7793 3.15801 13.0607 3.43932C13.342 3.72062 13.5 4.10215 13.5 4.49998C13.5 4.8978 13.342 5.27933 13.0607 5.56064C12.7793 5.84194 12.3978 5.99998 12 5.99998C11.6022 5.99998 11.2206 5.84194 10.9393 5.56064C10.658 5.27933 10.5 4.8978 10.5 4.49998C10.5 4.10215 10.658 3.72062 10.9393 3.43932C11.2206 3.15801 11.6022 2.99998 12 2.99998Z" fill="white"/>
</g>
<defs>
<clipPath id="clip0_2_134">
<rect width="24" height="24" fill="white"/>
</clipPath>
</defs>
</svg>
