<svg width="64" height="64" viewBox="0 0 64 64" fill="none" xmlns="http://www.w3.org/2000/svg">
<rect width="64" height="64" rx="16" fill="#00BFFF"/>
<path d="M20.052 45V19.8H33.516C36.996 19.8 39.564 20.424 41.22 21.672C42.876 22.896 43.704 24.468 43.704 26.388C43.704 27.66 43.344 28.8 42.624 29.808C41.928 30.792 40.908 31.572 39.564 32.148C38.22 32.724 36.564 33.012 34.596 33.012L35.316 31.068C37.284 31.068 38.976 31.344 40.392 31.896C41.832 32.448 42.936 33.252 43.704 34.308C44.496 35.34 44.892 36.588 44.892 38.052C44.892 40.236 43.98 41.94 42.156 43.164C40.356 44.388 37.716 45 34.236 45H20.052ZM28.404 39.06H33.516C34.452 39.06 35.148 38.892 35.604 38.556C36.084 38.22 36.324 37.728 36.324 37.08C36.324 36.432 36.084 35.94 35.604 35.604C35.148 35.268 34.452 35.1 33.516 35.1H27.828V29.484H32.364C33.324 29.484 34.02 29.328 34.452 29.016C34.908 28.68 35.136 28.212 35.136 27.612C35.136 26.988 34.908 26.52 34.452 26.208C34.02 25.896 33.324 25.74 32.364 25.74H28.404V39.06Z" fill="white"/>
</svg>
